<?xml version="1.0" encoding="UTF-8"?>
<svg width="173" height="40" viewBox="0 0 173 40" fill="none" xmlns="http://www.w3.org/2000/svg">
  <!-- Jetstar Star -->
  <path d="M20 2L23.5 12.5L34 12.5L25.5 19L29 29.5L20 23L11 29.5L14.5 19L6 12.5L16.5 12.5L20 2Z" fill="white"/>
  
  <!-- Jetstar Text -->
  <g fill="white">
    <!-- J -->
    <path d="M45 8h6v18c0 4-3 7-7 7s-7-3-7-7h6c0 1 .5 1.5 1 1.5s1-.5 1-1.5V8z"/>
    
    <!-- e -->
    <path d="M60 15c-4.5 0-8 3.5-8 8s3.5 8 8 8 8-3.5 8-8h-12c.5-2 2-3.5 4-3.5 1.5 0 2.5.5 3.5 1.5l3-3c-1.5-1.5-4-3-6.5-3zm4 8c-.5 2-2 3.5-4 3.5s-3.5-1.5-4-3.5h8z"/>
    
    <!-- t -->
    <path d="M77 10h-3v5h-2v5h2v11h6V20h3v-5h-3v-5h-3z"/>
    
    <!-- s -->
    <path d="M90 15c-4.5 0-8 3.5-8 8s3.5 8 8 8c3 0 5.5-1.5 7-4l-4-2.5c-.5 1-1.5 1.5-3 1.5-1.5 0-2.5-.5-3-1.5h11c0-.5.5-1.5.5-2.5 0-4.5-3.5-7.5-8.5-7.5zm-3 6.5c.5-1 1.5-1.5 3-1.5s2.5.5 3 1.5h-6z"/>
    
    <!-- t -->
    <path d="M107 10h-3v5h-2v5h2v11h6V20h3v-5h-3v-5h-3z"/>
    
    <!-- a -->
    <path d="M120 15c-4.5 0-8 3.5-8 8s3.5 8 8 8c2 0 4-.5 5.5-2v2h6V15h-6v2c-1.5-1.5-3.5-2-5.5-2zm1.5 11c-2 0-3.5-1.5-3.5-3.5s1.5-3.5 3.5-3.5 3.5 1.5 3.5 3.5-1.5 3.5-3.5 3.5z"/>
    
    <!-- r -->
    <path d="M140 15c-2 0-4 1-5 2.5V15h-6v16h6v-8c0-1.5 1-2.5 2.5-2.5h.5v-5.5z"/>
  </g>
</svg>